<svg width="856" height="290" viewBox="0 0 856 290" fill="none" xmlns="http://www.w3.org/2000/svg">
<path fill-rule="evenodd" clip-rule="evenodd" d="M681.518 6L717.901 102.986L770.973 52.0308L845.664 87.6394V174.465L733.772 290H394.634L681.518 6Z" fill="#88DFD4"/>
<path fill-rule="evenodd" clip-rule="evenodd" d="M394.634 290L681.518 6L717.901 102.986L770.973 52.0308L845.664 87.6394V174.465L733.772 290H726.518L840.453 172.355V90.9279L771.983 58.2851L715.802 112.226L679.465 15.3645L402.041 290H394.634Z" fill="white"/>
<path fill-rule="evenodd" clip-rule="evenodd" d="M614.643 37.2664L550.375 6.86877L282.913 290H560.968L677.176 170.009L655.463 98.0613L667.622 13.8166L614.643 37.2664Z" fill="#BCE6A4"/>
<path fill-rule="evenodd" clip-rule="evenodd" d="M550.375 6.86877L614.643 37.2664L667.622 13.8166L655.463 98.0613L677.176 170.009L560.968 290H553.714L671.302 168.583L650.14 98.4606L661.119 22.3936L614.571 42.9968L551.565 13.1965L290.081 290H282.913L550.375 6.86877Z" fill="white"/>
<path fill-rule="evenodd" clip-rule="evenodd" d="M534.741 170.147L416.625 55.5046L181.32 290H418.667L534.741 170.147Z" fill="#F3D771"/>
<path fill-rule="evenodd" clip-rule="evenodd" d="M188.703 290L416.673 62.8134L527.376 170.261L411.413 290H418.667L534.741 170.147L416.625 55.5046L181.32 290H188.703Z" fill="white"/>
<path fill-rule="evenodd" clip-rule="evenodd" d="M414.019 58.1101L306.325 52.0306L67.6077 290H237.738L406.203 119.774L414.019 58.1101Z" fill="#F5998E"/>
<path fill-rule="evenodd" clip-rule="evenodd" d="M408.147 62.9979L401.255 117.365L230.407 290H237.738L406.203 119.774L414.019 58.1101L306.325 52.0306L67.6077 290H74.9887L308.355 57.3646L408.147 62.9979Z" fill="white"/>
<path fill-rule="evenodd" clip-rule="evenodd" d="M307.193 158.856L236.845 54.6359L0 290H176.05L307.193 158.856Z" fill="#F75FA7"/>
<path fill-rule="evenodd" clip-rule="evenodd" d="M0 290L236.845 54.6359L307.193 158.856L176.05 290H168.68L300.47 158.21L236.05 62.7723L7.3927 290H0Z" fill="white"/>
<mask id="path-11-outside-1_412_403" maskUnits="userSpaceOnUse" x="228.108" y="-0.262939" width="628" height="177" fill="black">
<rect fill="white" x="228.108" y="-0.262939" width="628" height="177"/>
<path d="M305.123 152.9V152.451C297.494 152.451 289.864 149.983 289.864 136.073V63.8278H301.309V54.8533H289.864V31.0708H289.415C278.194 40.494 258.446 50.366 235.108 54.8533V63.8278H240.718L240.494 134.053C240.494 160.304 255.08 169.278 270.789 169.278C291.435 169.278 301.309 159.406 305.123 152.9Z"/>
<path d="M400.327 116.553H401.449L413.567 54.8533C406.162 54.8533 401.225 52.6096 393.146 52.6096C381.028 52.6096 369.808 60.0136 364.422 77.5139V52.6096L311.012 57.0969V57.9944L315.276 73.6998L315.052 146.169L309.89 166.81V167.035H369.583V166.81L364.422 146.169V101.521C364.197 82.2255 372.949 67.4176 381.028 67.4176L400.327 116.553Z"/>
<path d="M414.842 54.6289V54.8533L420.003 75.719V130.239C420.003 158.285 431.673 169.054 447.83 169.054C466.905 169.054 475.432 159.855 479.247 151.778L483.96 166.81L531.983 167.035V166.81L526.822 145.945V75.719L531.983 54.8533V54.6289H477.452V133.605C477.228 143.925 475.432 144.823 474.086 144.823C472.291 144.823 469.373 143.925 469.373 123.284V54.6289H414.842Z"/>
<path d="M599.748 167.035V166.81L594.586 146.169V63.8278H606.256V54.8533H591.893C571.023 39.1479 561.374 14.0192 569.228 14.0192C577.082 14.0192 589.425 38.2504 599.523 48.1224L599.972 47.898L601.992 9.98069C589.425 9.98069 579.102 7.73706 568.779 7.73706C552.397 7.73706 535.567 14.9167 535.567 31.0708C535.567 44.3082 544.543 51.2635 555.09 54.8533H535.567V63.8278H545.216V146.169L540.055 166.81V167.035H599.748Z"/>
<path d="M672.944 167.035V166.81L667.782 146.169V63.8278H679.451V54.8533H665.089C644.219 39.1479 634.57 14.0192 642.424 14.0192C650.278 14.0192 662.621 38.2504 672.719 48.1224L673.168 47.898L675.188 9.98069C662.621 9.98069 652.298 7.73706 641.975 7.73706C625.593 7.73706 608.763 14.9167 608.763 31.0708C608.763 44.3082 617.739 51.2635 628.286 54.8533H608.763V63.8278H618.412V146.169L613.251 166.81V167.035H672.944Z"/>
<path d="M742.773 167.035V166.81L737.612 146.169V7.73706L684.203 12V12.8974L688.466 28.8272L688.242 146.169L683.081 166.81V167.035H742.773Z"/>
<path d="M803.837 52.6096C763.219 52.6096 748.408 70.5587 748.408 111.393C748.408 152.002 764.566 169.278 808.998 169.278C823.585 169.278 831.215 167.708 845.353 167.708L846.25 124.181H845.353C835.03 143.925 817.077 161.874 808.998 161.874C800.471 161.874 798.002 152.676 797.778 114.085H848.27V106.457C848.27 70.1099 841.089 52.6096 803.837 52.6096ZM797.778 104.213C798.002 65.3983 799.798 60.0136 803.837 60.0136C808.774 60.0136 807.876 87.1615 807.652 104.213H797.778Z"/>
</mask>
<path d="M305.123 152.9V152.451C297.494 152.451 289.864 149.983 289.864 136.073V63.8278H301.309V54.8533H289.864V31.0708H289.415C278.194 40.494 258.446 50.366 235.108 54.8533V63.8278H240.718L240.494 134.053C240.494 160.304 255.08 169.278 270.789 169.278C291.435 169.278 301.309 159.406 305.123 152.9Z" fill="white"/>
<path d="M400.327 116.553H401.449L413.567 54.8533C406.162 54.8533 401.225 52.6096 393.146 52.6096C381.028 52.6096 369.808 60.0136 364.422 77.5139V52.6096L311.012 57.0969V57.9944L315.276 73.6998L315.052 146.169L309.89 166.81V167.035H369.583V166.81L364.422 146.169V101.521C364.197 82.2255 372.949 67.4176 381.028 67.4176L400.327 116.553Z" fill="white"/>
<path d="M414.842 54.6289V54.8533L420.003 75.719V130.239C420.003 158.285 431.673 169.054 447.83 169.054C466.905 169.054 475.432 159.855 479.247 151.778L483.96 166.81L531.983 167.035V166.81L526.822 145.945V75.719L531.983 54.8533V54.6289H477.452V133.605C477.228 143.925 475.432 144.823 474.086 144.823C472.291 144.823 469.373 143.925 469.373 123.284V54.6289H414.842Z" fill="white"/>
<path d="M599.748 167.035V166.81L594.586 146.169V63.8278H606.256V54.8533H591.893C571.023 39.1479 561.374 14.0192 569.228 14.0192C577.082 14.0192 589.425 38.2504 599.523 48.1224L599.972 47.898L601.992 9.98069C589.425 9.98069 579.102 7.73706 568.779 7.73706C552.397 7.73706 535.567 14.9167 535.567 31.0708C535.567 44.3082 544.543 51.2635 555.09 54.8533H535.567V63.8278H545.216V146.169L540.055 166.81V167.035H599.748Z" fill="white"/>
<path d="M672.944 167.035V166.81L667.782 146.169V63.8278H679.451V54.8533H665.089C644.219 39.1479 634.57 14.0192 642.424 14.0192C650.278 14.0192 662.621 38.2504 672.719 48.1224L673.168 47.898L675.188 9.98069C662.621 9.98069 652.298 7.73706 641.975 7.73706C625.593 7.73706 608.763 14.9167 608.763 31.0708C608.763 44.3082 617.739 51.2635 628.286 54.8533H608.763V63.8278H618.412V146.169L613.251 166.81V167.035H672.944Z" fill="white"/>
<path d="M742.773 167.035V166.81L737.612 146.169V7.73706L684.203 12V12.8974L688.466 28.8272L688.242 146.169L683.081 166.81V167.035H742.773Z" fill="white"/>
<path d="M803.837 52.6096C763.219 52.6096 748.408 70.5587 748.408 111.393C748.408 152.002 764.566 169.278 808.998 169.278C823.585 169.278 831.215 167.708 845.353 167.708L846.25 124.181H845.353C835.03 143.925 817.077 161.874 808.998 161.874C800.471 161.874 798.002 152.676 797.778 114.085H848.27V106.457C848.27 70.1099 841.089 52.6096 803.837 52.6096ZM797.778 104.213C798.002 65.3983 799.798 60.0136 803.837 60.0136C808.774 60.0136 807.876 87.1615 807.652 104.213H797.778Z" fill="white"/>
<path d="M305.123 152.9V152.451C297.494 152.451 289.864 149.983 289.864 136.073V63.8278H301.309V54.8533H289.864V31.0708H289.415C278.194 40.494 258.446 50.366 235.108 54.8533V63.8278H240.718L240.494 134.053C240.494 160.304 255.08 169.278 270.789 169.278C291.435 169.278 301.309 159.406 305.123 152.9Z" stroke="black" stroke-width="14" mask="url(#path-11-outside-1_412_403)"/>
<path d="M400.327 116.553H401.449L413.567 54.8533C406.162 54.8533 401.225 52.6096 393.146 52.6096C381.028 52.6096 369.808 60.0136 364.422 77.5139V52.6096L311.012 57.0969V57.9944L315.276 73.6998L315.052 146.169L309.89 166.81V167.035H369.583V166.81L364.422 146.169V101.521C364.197 82.2255 372.949 67.4176 381.028 67.4176L400.327 116.553Z" stroke="black" stroke-width="14" mask="url(#path-11-outside-1_412_403)"/>
<path d="M414.842 54.6289V54.8533L420.003 75.719V130.239C420.003 158.285 431.673 169.054 447.83 169.054C466.905 169.054 475.432 159.855 479.247 151.778L483.96 166.81L531.983 167.035V166.81L526.822 145.945V75.719L531.983 54.8533V54.6289H477.452V133.605C477.228 143.925 475.432 144.823 474.086 144.823C472.291 144.823 469.373 143.925 469.373 123.284V54.6289H414.842Z" stroke="black" stroke-width="14" mask="url(#path-11-outside-1_412_403)"/>
<path d="M599.748 167.035V166.81L594.586 146.169V63.8278H606.256V54.8533H591.893C571.023 39.1479 561.374 14.0192 569.228 14.0192C577.082 14.0192 589.425 38.2504 599.523 48.1224L599.972 47.898L601.992 9.98069C589.425 9.98069 579.102 7.73706 568.779 7.73706C552.397 7.73706 535.567 14.9167 535.567 31.0708C535.567 44.3082 544.543 51.2635 555.09 54.8533H535.567V63.8278H545.216V146.169L540.055 166.81V167.035H599.748Z" stroke="black" stroke-width="14" mask="url(#path-11-outside-1_412_403)"/>
<path d="M672.944 167.035V166.81L667.782 146.169V63.8278H679.451V54.8533H665.089C644.219 39.1479 634.57 14.0192 642.424 14.0192C650.278 14.0192 662.621 38.2504 672.719 48.1224L673.168 47.898L675.188 9.98069C662.621 9.98069 652.298 7.73706 641.975 7.73706C625.593 7.73706 608.763 14.9167 608.763 31.0708C608.763 44.3082 617.739 51.2635 628.286 54.8533H608.763V63.8278H618.412V146.169L613.251 166.81V167.035H672.944Z" stroke="black" stroke-width="14" mask="url(#path-11-outside-1_412_403)"/>
<path d="M742.773 167.035V166.81L737.612 146.169V7.73706L684.203 12V12.8974L688.466 28.8272L688.242 146.169L683.081 166.81V167.035H742.773Z" stroke="black" stroke-width="14" mask="url(#path-11-outside-1_412_403)"/>
<path d="M803.837 52.6096C763.219 52.6096 748.408 70.5587 748.408 111.393C748.408 152.002 764.566 169.278 808.998 169.278C823.585 169.278 831.215 167.708 845.353 167.708L846.25 124.181H845.353C835.03 143.925 817.077 161.874 808.998 161.874C800.471 161.874 798.002 152.676 797.778 114.085H848.27V106.457C848.27 70.1099 841.089 52.6096 803.837 52.6096ZM797.778 104.213C798.002 65.3983 799.798 60.0136 803.837 60.0136C808.774 60.0136 807.876 87.1615 807.652 104.213H797.778Z" stroke="black" stroke-width="14" mask="url(#path-11-outside-1_412_403)"/>
<path fill-rule="evenodd" clip-rule="evenodd" d="M181.556 147.424C182.201 145.683 184.663 145.683 185.308 147.424L188.86 157.024C189.063 157.571 189.494 158.003 190.042 158.205L199.641 161.757C201.383 162.402 201.383 164.865 199.641 165.509L190.042 169.061C189.494 169.264 189.063 169.695 188.86 170.243L185.308 179.842C184.663 181.584 182.201 181.584 181.556 179.842L178.004 170.243C177.802 169.695 177.37 169.264 176.823 169.061L167.223 165.509C165.482 164.865 165.482 162.402 167.223 161.757L176.823 158.205C177.37 158.003 177.802 157.571 178.004 157.024L181.556 147.424ZM76.1134 244.946C76.0265 243.091 78.2937 242.13 79.5669 243.481L84.6156 248.84C85.0159 249.265 85.5818 249.493 86.1649 249.466L93.5194 249.122C95.374 249.035 96.3358 251.302 94.9845 252.575L89.6256 257.624C89.2007 258.024 88.9719 258.59 88.9992 259.173L89.3436 266.528C89.4305 268.382 87.1633 269.344 85.8901 267.993L80.8413 262.634C80.4411 262.209 79.8751 261.98 79.2921 262.008L71.9375 262.352C70.083 262.439 69.1212 260.172 70.4725 258.899L75.8314 253.85C76.2563 253.45 76.485 252.884 76.4577 252.301L76.1134 244.946ZM255.004 254.771C253.731 253.42 251.464 254.382 251.551 256.236L251.895 263.591C251.922 264.174 251.694 264.74 251.269 265.14L245.91 270.189C244.558 271.462 245.52 273.729 247.375 273.642L254.729 273.298C255.312 273.271 255.878 273.5 256.279 273.924L261.327 279.283C262.601 280.635 264.868 279.673 264.781 277.818L264.437 270.464C264.409 269.881 264.638 269.315 265.063 268.915L270.422 263.866C271.773 262.593 270.811 260.325 268.957 260.412L261.602 260.757C261.019 260.784 260.453 260.555 260.053 260.13L255.004 254.771ZM394.772 203.797C395.745 202.216 398.16 202.699 398.45 204.533L400.393 216.813C400.484 217.389 400.822 217.897 401.319 218.203L411.906 224.722C413.486 225.696 413.003 228.11 411.169 228.4L398.89 230.343C398.313 230.434 397.805 230.773 397.499 231.27L390.98 241.856C390.007 243.437 387.592 242.953 387.302 241.12L385.36 228.84C385.268 228.263 384.93 227.755 384.433 227.449L373.847 220.931C372.266 219.957 372.749 217.542 374.583 217.252L386.863 215.31C387.439 215.219 387.947 214.88 388.253 214.383L394.772 203.797ZM623.392 196.717C623.102 194.883 620.687 194.4 619.714 195.98L613.195 206.567C612.889 207.064 612.381 207.402 611.804 207.493L599.525 209.436C597.691 209.726 597.208 212.141 598.789 213.114L609.375 219.633C609.872 219.939 610.21 220.447 610.302 221.024L612.244 233.303C612.534 235.137 614.949 235.62 615.922 234.039L622.441 223.453C622.747 222.956 623.255 222.618 623.832 222.526L636.111 220.584C637.945 220.294 638.428 217.879 636.847 216.906L626.261 210.387C625.764 210.081 625.426 209.573 625.335 208.996L623.392 196.717ZM736.79 209.142C736.442 207.318 738.55 206.045 740.002 207.203L744.207 210.556C744.663 210.92 745.256 211.066 745.829 210.957L751.112 209.947C752.935 209.599 754.208 211.707 753.051 213.159L749.697 217.364C749.334 217.82 749.187 218.413 749.297 218.986L750.306 224.269C750.654 226.092 748.546 227.365 747.095 226.208L742.89 222.854C742.433 222.491 741.841 222.344 741.267 222.454L735.985 223.463C734.161 223.811 732.888 221.703 734.046 220.252L737.399 216.047C737.763 215.59 737.909 214.998 737.8 214.424L736.79 209.142ZM520.739 251.918C519.466 250.566 517.199 251.528 517.286 253.383L517.526 258.515C517.553 259.098 517.324 259.664 516.899 260.064L513.16 263.587C511.809 264.86 512.771 267.127 514.625 267.04L519.757 266.8C520.34 266.773 520.906 267.001 521.306 267.426L524.829 271.165C526.102 272.517 528.369 271.555 528.283 269.7L528.042 264.569C528.015 263.986 528.244 263.42 528.669 263.019L532.408 259.497C533.759 258.223 532.797 255.956 530.943 256.043L525.811 256.283C525.228 256.311 524.662 256.082 524.262 255.657L520.739 251.918Z" fill="white"/>
<path d="M185.308 147.424L186.715 146.903L186.715 146.903L185.308 147.424ZM181.556 147.424L182.963 147.944L182.963 147.944L181.556 147.424ZM188.86 157.024L187.453 157.544L187.453 157.544L188.86 157.024ZM190.042 158.205L190.562 156.798L190.562 156.798L190.042 158.205ZM199.641 161.757L199.121 163.164L199.641 161.757ZM199.641 165.509L199.121 164.102L199.641 165.509ZM190.042 169.061L189.521 167.654L190.042 169.061ZM188.86 170.243L187.453 169.722L187.453 169.722L188.86 170.243ZM185.308 179.842L186.715 180.363L186.715 180.363L185.308 179.842ZM181.556 179.842L182.963 179.322L182.963 179.322L181.556 179.842ZM178.004 170.243L176.597 170.763V170.763L178.004 170.243ZM176.823 169.061L177.343 167.654L177.343 167.654L176.823 169.061ZM167.223 165.509L167.743 164.102H167.743L167.223 165.509ZM167.223 161.757L167.743 163.164H167.743L167.223 161.757ZM176.823 158.205L177.343 159.612V159.612L176.823 158.205ZM178.004 157.024L176.597 156.503V156.503L178.004 157.024ZM79.5669 243.481L78.4751 244.51H78.4751L79.5669 243.481ZM76.1134 244.946L77.6117 244.876L76.1134 244.946ZM84.6156 248.84L83.5239 249.868H83.5239L84.6156 248.84ZM86.1649 249.466L86.0947 247.968H86.0947L86.1649 249.466ZM93.5194 249.122L93.5896 250.62H93.5896L93.5194 249.122ZM94.9845 252.575L93.9559 251.484L94.9845 252.575ZM89.6256 257.624L88.597 256.532L88.597 256.532L89.6256 257.624ZM88.9992 259.173L87.5009 259.244L88.9992 259.173ZM89.3436 266.528L90.842 266.458L89.3436 266.528ZM85.8901 267.993L86.9819 266.964H86.9819L85.8901 267.993ZM80.8413 262.634L81.9331 261.605H81.9331L80.8413 262.634ZM79.2921 262.008L79.3622 263.506H79.3622L79.2921 262.008ZM71.9375 262.352L71.8674 260.854H71.8674L71.9375 262.352ZM70.4725 258.899L71.5011 259.99H71.5011L70.4725 258.899ZM75.8314 253.85L74.8028 252.758L74.8028 252.758L75.8314 253.85ZM76.4577 252.301L74.9594 252.371L76.4577 252.301ZM251.551 256.236L250.052 256.307V256.307L251.551 256.236ZM255.004 254.771L253.912 255.8L255.004 254.771ZM251.895 263.591L250.397 263.661V263.661L251.895 263.591ZM251.269 265.14L250.24 264.048L250.24 264.048L251.269 265.14ZM245.91 270.189L246.938 271.281L245.91 270.189ZM247.375 273.642L247.445 275.141L247.375 273.642ZM254.729 273.298L254.8 274.796L254.729 273.298ZM256.279 273.924L257.37 272.896L257.37 272.896L256.279 273.924ZM261.327 279.283L262.419 278.255L261.327 279.283ZM264.781 277.818L266.279 277.748L264.781 277.818ZM264.437 270.464L265.935 270.394V270.394L264.437 270.464ZM265.063 268.915L266.091 270.006V270.006L265.063 268.915ZM270.422 263.866L269.393 262.774L270.422 263.866ZM268.957 260.412L269.027 261.911L268.957 260.412ZM261.602 260.757L261.532 259.258H261.532L261.602 260.757ZM260.053 260.13L258.961 261.159L258.961 261.159L260.053 260.13ZM398.45 204.533L399.932 204.299L398.45 204.533ZM394.772 203.797L396.049 204.583V204.583L394.772 203.797ZM400.393 216.813L401.874 216.578V216.578L400.393 216.813ZM401.319 218.203L400.533 219.481L401.319 218.203ZM411.906 224.722L412.692 223.445L411.906 224.722ZM411.169 228.4L411.404 229.882L411.169 228.4ZM398.89 230.343L399.124 231.824V231.824L398.89 230.343ZM397.499 231.27L398.776 232.056V232.056L397.499 231.27ZM390.98 241.856L392.258 242.642L390.98 241.856ZM387.302 241.12L388.784 240.885V240.885L387.302 241.12ZM385.36 228.84L383.878 229.074V229.074L385.36 228.84ZM384.433 227.449L385.219 226.172L384.433 227.449ZM373.847 220.931L373.06 222.208L373.847 220.931ZM374.583 217.252L374.349 215.771H374.349L374.583 217.252ZM386.863 215.31L386.628 213.828L386.863 215.31ZM388.253 214.383L386.976 213.597L386.976 213.597L388.253 214.383ZM619.714 195.98L620.991 196.767L619.714 195.98ZM623.392 196.717L624.874 196.482V196.482L623.392 196.717ZM613.195 206.567L611.918 205.78V205.78L613.195 206.567ZM611.804 207.493L612.039 208.975L611.804 207.493ZM599.525 209.436L599.759 210.917H599.759L599.525 209.436ZM598.789 213.114L598.002 214.391L598.002 214.391L598.789 213.114ZM609.375 219.633L608.588 220.91V220.91L609.375 219.633ZM610.302 221.024L608.82 221.258V221.258L610.302 221.024ZM612.244 233.303L610.762 233.537V233.537L612.244 233.303ZM615.922 234.039L617.2 234.826L615.922 234.039ZM622.441 223.453L623.718 224.24V224.24L622.441 223.453ZM623.832 222.526L623.597 221.045L623.832 222.526ZM636.111 220.584L635.877 219.102L636.111 220.584ZM636.847 216.906L636.061 218.183L636.847 216.906ZM626.261 210.387L627.048 209.11L627.048 209.11L626.261 210.387ZM625.335 208.996L626.816 208.762V208.762L625.335 208.996ZM740.002 207.203L740.937 206.03L740.937 206.03L740.002 207.203ZM736.79 209.142L738.264 208.86V208.86L736.79 209.142ZM744.207 210.556L745.142 209.383V209.383L744.207 210.556ZM745.829 210.957L746.111 212.43V212.43L745.829 210.957ZM751.112 209.947L751.393 211.421L751.112 209.947ZM753.051 213.159L754.223 214.094L754.223 214.094L753.051 213.159ZM749.697 217.364L748.525 216.428L748.525 216.429L749.697 217.364ZM749.297 218.986L750.77 218.705V218.704L749.297 218.986ZM750.306 224.269L748.833 224.55V224.55L750.306 224.269ZM747.095 226.208L746.159 227.38V227.38L747.095 226.208ZM742.89 222.854L743.825 221.682L743.825 221.682L742.89 222.854ZM741.267 222.454L741.549 223.927H741.549L741.267 222.454ZM735.985 223.463L736.266 224.936L735.985 223.463ZM734.046 220.252L735.219 221.187V221.187L734.046 220.252ZM737.399 216.047L736.226 215.111L736.226 215.112L737.399 216.047ZM737.8 214.424L739.273 214.143L739.273 214.143L737.8 214.424ZM517.286 253.383L518.784 253.313V253.313L517.286 253.383ZM520.739 251.918L521.831 250.889V250.889L520.739 251.918ZM517.526 258.515L516.027 258.585V258.585L517.526 258.515ZM516.899 260.064L515.871 258.972V258.972L516.899 260.064ZM513.16 263.587L514.189 264.678L513.16 263.587ZM514.625 267.04L514.695 268.539L514.625 267.04ZM519.757 266.8L519.827 268.298L519.757 266.8ZM521.306 267.426L522.398 266.398L522.398 266.398L521.306 267.426ZM524.829 271.165L525.921 270.137V270.137L524.829 271.165ZM528.283 269.7L529.781 269.63V269.63L528.283 269.7ZM528.042 264.569L526.544 264.639V264.639L528.042 264.569ZM528.669 263.019L527.64 261.928L527.64 261.928L528.669 263.019ZM532.408 259.497L533.437 260.588V260.588L532.408 259.497ZM530.943 256.043L531.013 257.541L530.943 256.043ZM525.811 256.283L525.741 254.785L525.811 256.283ZM524.262 255.657L525.354 254.628V254.628L524.262 255.657ZM186.715 146.903C185.587 143.856 181.277 143.856 180.15 146.903L182.963 147.944C183.124 147.509 183.74 147.509 183.901 147.944L186.715 146.903ZM190.267 156.503L186.715 146.903L183.901 147.944L187.453 157.544L190.267 156.503ZM190.562 156.798C190.425 156.748 190.317 156.64 190.267 156.503L187.453 157.544C187.808 158.502 188.563 159.257 189.521 159.612L190.562 156.798ZM200.162 160.351L190.562 156.798L189.521 159.612L199.121 163.164L200.162 160.351ZM200.162 166.916C203.209 165.788 203.209 161.478 200.162 160.351L199.121 163.164C199.556 163.325 199.556 163.941 199.121 164.102L200.162 166.916ZM190.562 170.468L200.162 166.916L199.121 164.102L189.521 167.654L190.562 170.468ZM190.267 170.763C190.317 170.626 190.425 170.518 190.562 170.468L189.521 167.654C188.563 168.009 187.808 168.764 187.453 169.722L190.267 170.763ZM186.715 180.363L190.267 170.763L187.453 169.722L183.901 179.322L186.715 180.363ZM180.15 180.363C181.277 183.41 185.587 183.41 186.715 180.363L183.901 179.322C183.74 179.757 183.124 179.757 182.963 179.322L180.15 180.363ZM176.597 170.763L180.15 180.363L182.963 179.322L179.411 169.722L176.597 170.763ZM176.302 170.468C176.439 170.518 176.547 170.626 176.597 170.763L179.411 169.722C179.056 168.764 178.301 168.009 177.343 167.654L176.302 170.468ZM166.702 166.916L176.302 170.468L177.343 167.654L167.743 164.102L166.702 166.916ZM166.702 160.351C163.655 161.478 163.655 165.788 166.702 166.916L167.743 164.102C167.308 163.941 167.308 163.325 167.743 163.164L166.702 160.351ZM176.302 156.798L166.702 160.351L167.743 163.164L177.343 159.612L176.302 156.798ZM176.597 156.503C176.547 156.64 176.439 156.748 176.302 156.798L177.343 159.612C178.301 159.257 179.056 158.502 179.411 157.544L176.597 156.503ZM180.15 146.903L176.597 156.503L179.411 157.544L182.963 147.944L180.15 146.903ZM80.6587 242.452C78.4306 240.087 74.463 241.771 74.615 245.016L77.6117 244.876C77.59 244.412 78.1568 244.172 78.4751 244.51L80.6587 242.452ZM85.7074 247.811L80.6587 242.452L78.4751 244.51L83.5239 249.868L85.7074 247.811ZM86.0947 247.968C85.949 247.975 85.8075 247.917 85.7074 247.811L83.5239 249.868C84.2243 250.612 85.2147 251.012 86.2351 250.965L86.0947 247.968ZM93.4493 247.623L86.0947 247.968L86.2351 250.965L93.5896 250.62L93.4493 247.623ZM96.0131 253.667C98.3779 251.439 96.6948 247.471 93.4493 247.623L93.5896 250.62C94.0532 250.598 94.2937 251.165 93.9559 251.484L96.0131 253.667ZM90.6542 258.716L96.0131 253.667L93.9559 251.484L88.597 256.532L90.6542 258.716ZM90.4976 259.103C90.4908 258.957 90.548 258.816 90.6542 258.716L88.597 256.532C87.8535 257.233 87.4531 258.223 87.5009 259.244L90.4976 259.103ZM90.842 266.458L90.4976 259.103L87.5009 259.244L87.8453 266.598L90.842 266.458ZM84.7983 269.021C87.0263 271.386 90.994 269.703 90.842 266.458L87.8453 266.598C87.867 267.062 87.3002 267.302 86.9819 266.964L84.7983 269.021ZM79.7495 263.663L84.7983 269.021L86.9819 266.964L81.9331 261.605L79.7495 263.663ZM79.3622 263.506C79.508 263.499 79.6495 263.556 79.7495 263.663L81.9331 261.605C81.2326 260.862 80.2423 260.462 79.2219 260.509L79.3622 263.506ZM72.0077 263.85L79.3622 263.506L79.2219 260.509L71.8674 260.854L72.0077 263.85ZM69.4439 257.807C67.0791 260.035 68.7622 264.002 72.0077 263.85L71.8674 260.854C71.4037 260.875 71.1633 260.309 71.5011 259.99L69.4439 257.807ZM74.8028 252.758L69.4439 257.807L71.5011 259.99L76.86 254.942L74.8028 252.758ZM74.9594 252.371C74.9662 252.516 74.909 252.658 74.8028 252.758L76.86 254.942C77.6035 254.241 78.0039 253.251 77.9561 252.23L74.9594 252.371ZM74.615 245.016L74.9594 252.371L77.9561 252.23L77.6117 244.876L74.615 245.016ZM253.049 256.166C253.027 255.703 253.594 255.462 253.912 255.8L256.096 253.743C253.868 251.378 249.9 253.061 250.052 256.307L253.049 256.166ZM253.393 263.521L253.049 256.166L250.052 256.307L250.397 263.661L253.393 263.521ZM252.297 266.232C253.041 265.531 253.441 264.541 253.393 263.521L250.397 263.661C250.404 263.807 250.346 263.948 250.24 264.048L252.297 266.232ZM246.938 271.281L252.297 266.232L250.24 264.048L244.881 269.097L246.938 271.281ZM247.305 272.144C246.841 272.166 246.601 271.599 246.938 271.281L244.881 269.097C242.516 271.325 244.199 275.293 247.445 275.141L247.305 272.144ZM254.659 271.8L247.305 272.144L247.445 275.141L254.8 274.796L254.659 271.8ZM257.37 272.896C256.67 272.152 255.68 271.752 254.659 271.8L254.8 274.796C254.945 274.79 255.087 274.847 255.187 274.953L257.37 272.896ZM262.419 278.255L257.37 272.896L255.187 274.953L260.236 280.312L262.419 278.255ZM263.283 277.888C263.304 278.352 262.737 278.593 262.419 278.255L260.236 280.312C262.464 282.677 266.431 280.994 266.279 277.748L263.283 277.888ZM262.938 270.534L263.283 277.888L266.279 277.748L265.935 270.394L262.938 270.534ZM264.034 267.823C263.291 268.523 262.89 269.514 262.938 270.534L265.935 270.394C265.928 270.248 265.985 270.106 266.091 270.006L264.034 267.823ZM269.393 262.774L264.034 267.823L266.091 270.006L271.45 264.958L269.393 262.774ZM269.027 261.911C269.491 261.889 269.731 262.456 269.393 262.774L271.45 264.958C273.815 262.729 272.132 258.762 268.887 258.914L269.027 261.911ZM261.672 262.255L269.027 261.911L268.887 258.914L261.532 259.258L261.672 262.255ZM258.961 261.159C259.662 261.902 260.652 262.303 261.672 262.255L261.532 259.258C261.386 259.265 261.245 259.208 261.145 259.102L258.961 261.159ZM253.912 255.8L258.961 261.159L261.145 259.102L256.096 253.743L253.912 255.8ZM399.932 204.299C399.424 201.09 395.198 200.244 393.495 203.01L396.049 204.583C396.292 204.188 396.896 204.309 396.969 204.767L399.932 204.299ZM401.874 216.578L399.932 204.299L396.969 204.767L398.911 217.047L401.874 216.578ZM402.106 216.926C401.982 216.849 401.897 216.723 401.874 216.578L398.911 217.047C399.071 218.056 399.663 218.945 400.533 219.481L402.106 216.926ZM412.692 223.445L402.106 216.926L400.533 219.481L411.119 225.999L412.692 223.445ZM411.404 229.882C414.613 229.374 415.459 225.148 412.692 223.445L411.119 225.999C411.514 226.243 411.393 226.846 410.935 226.919L411.404 229.882ZM399.124 231.824L411.404 229.882L410.935 226.919L398.655 228.861L399.124 231.824ZM398.776 232.056C398.853 231.932 398.98 231.847 399.124 231.824L398.655 228.861C397.646 229.021 396.758 229.613 396.222 230.483L398.776 232.056ZM392.258 242.642L398.776 232.056L396.222 230.483L389.703 241.069L392.258 242.642ZM385.82 241.354C386.328 244.563 390.554 245.409 392.258 242.642L389.703 241.069C389.46 241.464 388.856 241.344 388.784 240.885L385.82 241.354ZM383.878 229.074L385.82 241.354L388.784 240.885L386.841 228.606L383.878 229.074ZM383.646 228.727C383.771 228.803 383.855 228.93 383.878 229.074L386.841 228.606C386.682 227.597 386.089 226.708 385.219 226.172L383.646 228.727ZM373.06 222.208L383.646 228.727L385.219 226.172L374.633 219.653L373.06 222.208ZM374.349 215.771C371.139 216.278 370.294 220.504 373.06 222.208L374.633 219.653C374.238 219.41 374.359 218.806 374.817 218.734L374.349 215.771ZM386.628 213.828L374.349 215.771L374.817 218.734L387.097 216.791L386.628 213.828ZM386.976 213.597C386.899 213.721 386.772 213.805 386.628 213.828L387.097 216.791C388.106 216.632 388.995 216.039 389.53 215.17L386.976 213.597ZM393.495 203.01L386.976 213.597L389.53 215.17L396.049 204.583L393.495 203.01ZM620.991 196.767C621.234 196.372 621.838 196.493 621.911 196.951L624.874 196.482C624.366 193.273 620.14 192.427 618.436 195.194L620.991 196.767ZM614.472 207.353L620.991 196.767L618.436 195.194L611.918 205.78L614.472 207.353ZM612.039 208.975C613.048 208.815 613.937 208.223 614.472 207.353L611.918 205.78C611.841 205.904 611.714 205.989 611.57 206.012L612.039 208.975ZM599.759 210.917L612.039 208.975L611.57 206.012L599.29 207.954L599.759 210.917ZM599.575 211.837C599.18 211.594 599.301 210.99 599.759 210.917L599.29 207.954C596.081 208.462 595.236 212.688 598.002 214.391L599.575 211.837ZM610.161 218.356L599.575 211.837L598.002 214.391L608.588 220.91L610.161 218.356ZM611.783 220.789C611.624 219.78 611.031 218.891 610.161 218.356L608.588 220.91C608.713 220.987 608.797 221.114 608.82 221.258L611.783 220.789ZM613.725 233.069L611.783 220.789L608.82 221.258L610.762 233.537L613.725 233.069ZM614.645 233.253C614.402 233.648 613.798 233.527 613.725 233.069L610.762 233.537C611.27 236.747 615.496 237.592 617.2 234.826L614.645 233.253ZM621.164 222.667L614.645 233.253L617.2 234.826L623.718 224.24L621.164 222.667ZM623.597 221.045C622.588 221.204 621.699 221.797 621.164 222.667L623.718 224.24C623.795 224.115 623.922 224.031 624.066 224.008L623.597 221.045ZM635.877 219.102L623.597 221.045L624.066 224.008L636.346 222.066L635.877 219.102ZM636.061 218.183C636.456 218.426 636.335 219.03 635.877 219.102L636.346 222.066C639.555 221.558 640.401 217.332 637.634 215.628L636.061 218.183ZM625.475 211.664L636.061 218.183L637.634 215.628L627.048 209.11L625.475 211.664ZM623.853 209.231C624.013 210.24 624.605 211.129 625.475 211.664L627.048 209.11C626.924 209.033 626.839 208.906 626.816 208.762L623.853 209.231ZM621.911 196.951L623.853 209.231L626.816 208.762L624.874 196.482L621.911 196.951ZM740.937 206.03C738.397 204.004 734.707 206.232 735.317 209.423L738.264 208.86C738.177 208.404 738.704 208.086 739.067 208.376L740.937 206.03ZM745.142 209.383L740.937 206.03L739.067 208.376L743.271 211.729L745.142 209.383ZM745.548 209.483C745.404 209.511 745.256 209.474 745.142 209.383L743.271 211.729C744.07 212.366 745.107 212.622 746.111 212.43L745.548 209.483ZM750.83 208.474L745.548 209.483L746.111 212.43L751.393 211.421L750.83 208.474ZM754.223 214.094C756.249 211.554 754.021 207.864 750.83 208.474L751.393 211.421C751.849 211.334 752.167 211.861 751.878 212.224L754.223 214.094ZM750.87 218.299L754.223 214.094L751.878 212.224L748.525 216.428L750.87 218.299ZM750.77 218.704C750.743 218.561 750.779 218.413 750.87 218.299L748.525 216.429C747.888 217.227 747.632 218.264 747.823 219.268L750.77 218.704ZM751.779 223.987L750.77 218.705L747.823 219.268L748.833 224.55L751.779 223.987ZM746.159 227.38C748.7 229.406 752.389 227.178 751.779 223.987L748.833 224.55C748.92 225.006 748.393 225.324 748.03 225.035L746.159 227.38ZM741.955 224.027L746.159 227.38L748.03 225.035L743.825 221.682L741.955 224.027ZM741.549 223.927C741.692 223.9 741.84 223.936 741.955 224.027L743.825 221.682C743.026 221.045 741.989 220.789 740.986 220.98L741.549 223.927ZM736.266 224.936L741.549 223.927L740.986 220.98L735.703 221.99L736.266 224.936ZM732.873 219.316C730.847 221.857 733.075 225.546 736.266 224.936L735.703 221.99C735.247 222.077 734.929 221.55 735.219 221.187L732.873 219.316ZM736.226 215.112L732.873 219.316L735.219 221.187L738.572 216.982L736.226 215.112ZM736.326 214.706C736.354 214.849 736.317 214.997 736.226 215.111L738.572 216.982C739.209 216.183 739.465 215.146 739.273 214.143L736.326 214.706ZM735.317 209.423L736.326 214.706L739.273 214.143L738.264 208.86L735.317 209.423ZM518.784 253.313C518.762 252.849 519.329 252.609 519.647 252.946L521.831 250.889C519.603 248.524 515.635 250.207 515.787 253.453L518.784 253.313ZM519.024 258.444L518.784 253.313L515.787 253.453L516.027 258.585L519.024 258.444ZM517.928 261.156C518.672 260.455 519.072 259.465 519.024 258.444L516.027 258.585C516.034 258.73 515.977 258.872 515.871 258.972L517.928 261.156ZM514.189 264.678L517.928 261.156L515.871 258.972L512.132 262.495L514.189 264.678ZM514.555 265.542C514.091 265.564 513.851 264.997 514.189 264.678L512.132 262.495C509.767 264.723 511.45 268.691 514.695 268.539L514.555 265.542ZM519.687 265.302L514.555 265.542L514.695 268.539L519.827 268.298L519.687 265.302ZM522.398 266.398C521.698 265.654 520.707 265.254 519.687 265.302L519.827 268.298C519.973 268.291 520.114 268.349 520.215 268.455L522.398 266.398ZM525.921 270.137L522.398 266.398L520.214 268.455L523.737 272.194L525.921 270.137ZM526.784 269.771C526.806 270.234 526.239 270.475 525.921 270.137L523.737 272.194C525.965 274.559 529.933 272.876 529.781 269.63L526.784 269.771ZM526.544 264.639L526.784 269.771L529.781 269.63L529.541 264.499L526.544 264.639ZM527.64 261.928C526.897 262.628 526.496 263.618 526.544 264.639L529.541 264.499C529.534 264.353 529.591 264.211 529.697 264.111L527.64 261.928ZM531.379 258.405L527.64 261.928L529.697 264.111L533.437 260.588L531.379 258.405ZM531.013 257.541C531.477 257.52 531.717 258.087 531.379 258.405L533.437 260.588C535.801 258.36 534.118 254.393 530.873 254.545L531.013 257.541ZM525.881 257.782L531.013 257.541L530.873 254.545L525.741 254.785L525.881 257.782ZM523.17 256.686C523.871 257.429 524.861 257.83 525.881 257.782L525.741 254.785C525.595 254.792 525.454 254.735 525.354 254.628L523.17 256.686ZM519.647 252.946L523.17 256.686L525.354 254.628L521.831 250.889L519.647 252.946Z" fill="black"/>
</svg>
